<svg xmlns="http://www.w3.org/2000/svg" width="18" height="18" viewBox="0 0 18 18" fill="none">
  <g opacity="0.95">
    <path d="M8.9998 6.75C9.3748 6.75 9.7498 6.825 10.0498 7.05C10.3498 7.275 10.5748 7.575 10.7248 7.875C10.8748 8.25 10.8748 8.625 10.7998 8.925C10.7248 9.3 10.5748 9.6 10.2748 9.9C10.0498 10.125 9.6748 10.35 9.2998 10.425C8.9248 10.5 8.5498 10.425 8.2498 10.35C7.8748 10.2 7.6498 9.975 7.4248 9.675C7.1998 9.375 7.1248 9 7.1248 8.625C7.1248 8.1 7.3498 7.65 7.6498 7.275C8.0248 6.975 8.4748 6.75 8.9998 6.75ZM8.9998 5.25C8.3248 5.25 7.6498 5.475 7.1248 5.85C6.5998 6.225 6.1498 6.75 5.8498 7.35C5.6248 7.95 5.5498 8.625 5.6248 9.3C5.7748 9.975 6.0748 10.575 6.5248 11.025C6.9748 11.475 7.5748 11.85 8.2498 11.925C8.9248 12.075 9.5998 12 10.1998 11.7C10.7998 11.475 11.3248 11.025 11.6998 10.425C12.0748 9.9 12.2998 9.225 12.2998 8.55C12.2998 8.1 12.2248 7.65 12.0748 7.275C11.9248 6.9 11.6248 6.525 11.3248 6.15C11.0248 5.85 10.6498 5.625 10.1998 5.4C9.89981 5.325 9.4498 5.25 8.9998 5.25Z" fill="#111820"/>
    <path d="M9 4.5C12.3 4.5 14.55 7.5 15.45 8.925C14.55 10.2 12.3 12.75 9 12.75C5.7 12.75 3.45 10.2 2.55 8.925C3.45 7.5 5.7 4.5 9 4.5ZM9 3C3.75 3 0.75 9 0.75 9C0.75 9 3.75 14.25 9 14.25C14.25 14.25 17.25 9 17.25 9C17.25 9 14.25 3 9 3Z" fill="#111820"/>
  </g>
</svg>